# xmcd
#
# Track frame offsets:
#	150
#	17630
#	41350
#
# Disc length: 779 seconds
#
# Revision: 1
# Processed by: cddbd v1.5.2PL0 Copyright (c) Steve Scherf et al.
# Submitted via: audiograbber 1.83.01
#
DISCID=17030903
DTITLE=Chris Braide - Heavenly Rain CDS
DYEAR=1997
DGENRE=
TTITLE0=Heavenly Rain (Radio Edit)
TTITLE1=Heavenly Rain (Paleface Mix)
TTITLE2=Change The World
EXTD=
EXTT0=
EXTT1=
EXTT2=
PLAYORDER=
